<?xml version="1.0" encoding="utf-8"?>
<!-- Generator: Adobe Illustrator 17.0.2, SVG Export Plug-In . SVG Version: 6.00 Build 0)  -->
<!DOCTYPE svg PUBLIC "-//W3C//DTD SVG 1.1//EN" "http://www.w3.org/Graphics/SVG/1.1/DTD/svg11.dtd">
<svg version="1.1" id="Слой_1" xmlns="http://www.w3.org/2000/svg" xmlns:xlink="http://www.w3.org/1999/xlink" x="0px" y="0px"
	 width="74px" height="70px" viewBox="0 0 74 70" enable-background="new 0 0 74 70" xml:space="preserve">
<g>
	<defs>
		<path id="SVGID_1_" d="M13.447,20.751c0,0.699,0.036,1.389,0.103,2.069c-0.983-0.323-2.03-0.504-3.121-0.504
			c-5.523,0-10,4.478-10,10.001c0,5.523,4.477,10.001,10,10.001h47.538v-0.039c8.375-0.548,15.001-7.51,15.001-16.024
			c0-8.873-7.192-16.064-16.064-16.064c-1.554,0-3.055,0.225-4.477,0.637C48.907,4.377,42.064,0,34.198,0
			C22.737,0,13.447,9.291,13.447,20.751"/>
	</defs>
	<clipPath id="SVGID_2_">
		<use xlink:href="#SVGID_1_"  overflow="visible"/>
	</clipPath>
	
		<linearGradient id="SVGID_3_" gradientUnits="userSpaceOnUse" x1="-596.5549" y1="528.8868" x2="-595.5549" y2="528.8868" gradientTransform="matrix(42.0025 57.0033 57.0033 -42.0025 -5081.1396 56205.6445)">
		<stop  offset="0" style="stop-color:#63ADFB"/>
		<stop  offset="0.2957" style="stop-color:#63ADFB"/>
		<stop  offset="0.6936" style="stop-color:#5280FA"/>
		<stop  offset="1" style="stop-color:#935DFA"/>
	</linearGradient>
	<polygon clip-path="url(#SVGID_2_)" fill="url(#SVGID_3_)" points="47.442,-34.642 93.177,27.427 25.954,76.96 -19.781,14.891 	"/>
</g>
</svg>
